<svg id="visual" viewBox="0 0 900 600" width="900" height="600" xmlns="http://www.w3.org/2000/svg" xmlns:xlink="http://www.w3.org/1999/xlink" version="1.1"><path d="M0 389L21.5 403C43 417 86 445 128.8 454C171.7 463 214.3 453 257.2 455.2C300 457.3 343 471.7 385.8 465C428.7 458.3 471.3 430.7 514.2 415.5C557 400.3 600 397.7 642.8 398.8C685.7 400 728.3 405 771.2 402C814 399 857 388 878.5 382.5L900 377L900 601L878.5 601C857 601 814 601 771.2 601C728.3 601 685.7 601 642.8 601C600 601 557 601 514.2 601C471.3 601 428.7 601 385.8 601C343 601 300 601 257.2 601C214.3 601 171.7 601 128.8 601C86 601 43 601 21.5 601L0 601Z" fill="#FFC107" stroke-linecap="round" stroke-linejoin="miter"></path></svg>